<svg fill="#999999" xmlns="http://www.w3.org/2000/svg" viewBox="0 0 150 49" class="">
    <path
        d="m58.0615 23.8846-1.9988-.1836c-1.3105-.1144-1.8383-.574-1.8383-1.3787 0-.9422.8037-1.5623 2.366-1.5623 1.471 0 2.2066.6422 2.3209 1.6767h4.688c-.299-3.0554-2.4584-5.2157-6.8704-5.2157-4.5956 0-7.1242 2.3439-7.1242 5.4455 0 2.8958 1.5854 4.4812 5.5158 4.8033l1.9767.1605c1.5382.1154 2.0901.6432 2.0901 1.5624 0 .9652-.8038 1.6777-2.4584 1.6777-1.5402 0-2.4583-.6894-2.6189-1.9065h-4.9418c.4365 3.3313 2.7805 5.5368 7.5376 5.5368 4.6187 0 7.1694-2.366 7.1694-5.5609 0-3.1015-1.7008-4.6869-5.8137-5.0552ZM41.8844 17.221c-2.941 0-4.6879 1.5392-5.5147 4.6879h-.299v-4.412h-4.6418v16.7289h4.9408v-9.7432c0-2.2295 1.1489-3.4467 3.2169-3.4467 2.045 0 3.0564 1.2643 3.0564 3.4237v9.7662h4.9398V23.5866c0-4.0448-2.1132-6.3656-5.6984-6.3656Zm-15.2578-6.2503c-1.6777 0-2.942 1.1038-2.942 2.7805 0 1.6777 1.2412 2.7804 2.9189 2.7804 1.6777 0 2.9179-1.1037 2.9179-2.7804 0-1.6547-1.2402-2.7805-2.8948-2.7805Zm2.4583 6.5262h-4.9408v16.7289h4.9408V17.4969Zm42.5567-3.539h-3.1477c-.0923 2.6891-1.2412 3.8601-3.8149 4.0668v3.4016h2.0228v7.353c0 3.6995 2.1132 5.7214 6.3185 5.7214.7907 0 1.5784-.1003 2.344-.298v-3.9765c-.3946.0655-.7941.096-1.1941.0913-1.77 0-2.5286-.6663-2.5286-2.5276v-6.3636h4.3438v-3.9294h-4.3438v-3.539ZM150 21.4263v-3.9294h-4.343v-3.539h-3.102c-.07 1.8613-.62 2.941-1.839 3.539v11.2824c0 3.6995 2.115 5.7214 6.32 5.7214.791 0 1.578-.1003 2.344-.298v-3.9765c-.395.0655-.795.0961-1.195.0913-1.77 0-2.528-.6663-2.528-2.5276v-6.3636H150Zm-16.177.7355h-.299v-4.6659h-4.573v16.7299h4.941V25.172c0-2.5055 1.126-3.5621 3.7-3.5621.436 0 .919.0461 1.585.1605v-4.3197c-.45-.158-.924-.2357-1.402-.2297-1.999 0-3.378 1.1489-3.952 4.9408Zm-31.55 8.1115c-2.3211 0-3.9988-1.5402-3.9988-4.5274 0-2.665 1.5623-4.3196 3.9528-4.3196 2.045 0 3.217 1.1489 3.562 2.9871h5.009c-.483-4.2976-3.561-7.1924-8.502-7.1924-5.4236 0-8.9847 3.6765-8.9847 8.7096 0 5.2157 3.4236 8.5701 8.9157 8.5701 4.987 0 8.227-2.7794 8.686-7.2848h-5.01c-.275 1.8393-1.539 3.0574-3.63 3.0574ZM84.5565 17.221c-4.2976 0-6.8934 2.1141-7.354 5.905h4.7341c.1606-1.3094 1.0115-1.9988 2.5045-1.9988 1.5162 0 2.2055.6894 2.2055 1.6777 0 .8269-.5278 1.2643-1.8834 1.5162l-2.2526.4144c-3.9745.7345-5.4917 2.366-5.4917 4.9629 0 2.9641 2.0911 4.8264 4.987 4.8264 2.366 0 3.9062-1.1038 4.6187-3.8611h.298v3.5621h4.6658V23.3107c0-3.7919-2.2757-6.0897-7.0319-6.0897Zm-.5518 13.9253c-1.3326 0-2.0912-.7124-2.0912-1.77 0-.873.5288-1.47 1.8383-1.769l.9191-.2067c.7927-.1837 1.4078-.4285 1.9767-.9202v1.7701c0 2.0449-1.0806 2.8958-2.6429 2.8958ZM119.668 17.221c-4.298 0-6.894 2.1141-7.353 5.905h4.733c.162-1.3094 1.011-1.9988 2.505-1.9988 1.517 0 2.206.6894 2.206 1.6777 0 .8269-.529 1.2643-1.884 1.5162l-2.252.4144c-3.976.7345-5.493 2.366-5.493 4.9629 0 2.9641 2.091 4.8264 4.987 4.8264 2.367 0 3.907-1.1038 4.619-3.8611h.299v3.5621h4.665V23.3107c0-3.7919-2.276-6.0897-7.032-6.0897Zm-.552 13.9253c-1.332 0-2.091-.7124-2.091-1.77 0-.873.529-1.47 1.838-1.769l.919-.2067c.793-.1837 1.409-.4285 1.977-.9202v1.7701c0 2.0449-1.08 2.8958-2.643 2.8958ZM15.8277 14.9747c-1.0154 0-1.7399.4425-2.4082 1.4038l-1.9265 2.7664V11.248H6.89737v7.8969l-1.92655-2.7664c-.66727-.9613-1.39174-1.4038-2.40819-1.4038-1.53322 0-2.55368538 1.1319-2.55870244 2.5266C-.00008609 18.6954.562828 19.474 1.74986 20.2386l7.44532 4.7963 7.44532-4.7963c1.187-.7646 1.7499-1.5432 1.7459-2.7373-.004-1.3947-1.0255-2.5266-2.5587-2.5266ZM9.1947 26.1836c4.425 0 8.0524 3.3032 8.0423 8.0433H1.15236c-.00903-4.7381 3.6173-8.0433 8.04234-8.0433Z" />
</svg>
