<svg fill="#999999" xmlns="http://www.w3.org/2000/svg" viewBox="0 0 200 49" class="h-10 md:h-[49px]">
    <path
        d="M30.4489 31.1192c-.2601-1.7788-.786-3.5078-1.4086-5.1897-.9383-2.4559-2.1465-4.805-3.5795-7.0074-1.4005-2.16-2.9961-4.1964-4.7928-6.0391-1.8482-1.9117-3.8957-3.62607-6.0717-5.15136-2.0064-1.38953-4.117-2.64155-6.35268-3.62727-.17261-.08297-.37532-.14795-.56008-.0615-.32146.10269-.52013.49083-.39212.80819.08746.22337.22936.42005.34057.63297 1.06572 1.95578 1.98259 3.99626 2.70661 6.10467.717 2.1095 1.2464 4.2997 1.3576 6.5316.0637 1.5856-.0706 3.173-.2815 4.7435-.1969 1.183-.4599 2.3567-.8259 3.4997-.6742 2.0254-1.61655 3.9968-3.01357 5.6254-.19404.2436-.51839.4519-.48943.8029.00463.4444.54039.7769.92961.5408 1.39761-.9051 2.91449-1.6135 4.47429-2.1879 1.9091-.673 3.9079-1.1331 5.9351-1.2126 1.1433-.0493 2.2901-.0017 3.4294.1108 2.6597.3122 5.284.9649 7.7618 1.9872.2995.1409.6765-.0279.8132-.3197.0817-.1886.0458-.3969.0209-.593l-.0012.0018Zm-4.5299-1.6251c-.8607-.2361-1.7428-.38-2.6191-.543-1.528-.2147-3.0727-.3563-4.6186-.3052-2.6058.0812-5.1797.6898-7.5892 1.6755-.3759.1236-.7118.3441-1.09235.4561 1.49665-2.536 2.37705-5.4073 2.74715-8.321.1303-.9422.2137-1.8913.2154-2.8434.0417-.4537.0446-.9097.0006-1.3634.0018-1.1128-.1969-2.2122-.3863-3.3053-.5665-2.7576-1.5476-5.41479-2.74656-7.95597-.14538-.29473-.29828-.58598-.42339-.88941.12626.04699.25136.09863.37068.16361C14.7764 8.96451 19.2686 12.6655 22.7044 17.21c2.3997 3.1707 4.3608 6.6981 5.6061 10.4838.2861.8981.5456 1.8061.7188 2.7332-1.0264-.3434-2.0539-.6933-3.1109-.9323l.0006-.0006Z" />
    <path
        d="M39.2024 30.6067c-.9087-2.4681-2.004-4.8677-3.2736-7.1705-1.2123-2.1745-2.589-4.273-4.2617-6.1237-.9094-1.0136-1.8691-1.9802-2.8375-2.9363-1.6449-1.5752-3.3773-3.0807-5.3136-4.2875-.9163-.55873-1.8754-1.07683-2.9203-1.34429-.2769-.05628-.5699-.15374-.8503-.0731-.4737.1259-.5965.82559-.1969 1.1064.9435.61619 1.8378 1.30719 2.68 2.05499 1.7752 1.5485 3.3321 3.3505 4.5704 5.3574 2.4882 3.9678 4.3701 8.3 5.7289 12.7784.1129.34.1106.7623.417 1.0014.1726.145.4124.1183.6191.0841.6053-.123 1.2216-.2135 1.8413-.1973.4686.011.9128.1805 1.3582.3104.4286.1514.8538.3116 1.2737.4856.2612.1045.516.2814.8097.2541.2786-.0272.5155-.2657.5497-.543.0324-.268-.1078-.5123-.1923-.7571h-.0018Zm-3.0512-.9422c-.7842-.1538-1.5922-.0702-2.3753.0458-1.2163-4.0763-2.8832-8.021-5.0002-11.7115-.5334-.9051-1.0819-1.8026-1.6791-2.6682-.6782-.9678-1.4347-1.8786-2.2409-2.7414 1.9809 1.5416 3.7677 3.3169 5.4763 5.152 1.6438 1.7365 3.0014 3.7242 4.1899 5.7937 1.0704 1.8722 2.0029 3.821 2.8265 5.8128.1054.2466.2068.4966.2861.7536-.4987-.1317-.9788-.3266-1.4833-.4374v.0006ZM46.3348 40.9364c-.2282-.2669-.603-.1885-.9047-.2732-.6493-.1671-1.148-.6446-1.6415-1.071-.629-.5611-1.287-1.1401-2.1048-1.3994-.801-.2884-1.7075-.2658-2.4963.0551-.9059.3411-1.6079 1.0292-2.3539 1.6193-.5056.4043-1.0906.7588-1.7497.8081-.5862.0378-1.2106-.0968-1.6728-.4751.6447-.2959 1.2778-.6133 1.9021-.9474 1.4961-.8187 3.0055-1.6222 4.4106-2.5929 1.2795-.8673 2.5114-1.8037 3.7248-2.7616.1576-.1265.3383-.2547.3933-.4612.128-.3992-.2328-.8622-.6539-.8123-1.8598.0992-3.7179.257-5.5771.358-2.0318.1166-4.0619.2761-6.0932.3962-2.0109.1039-4.0184.2779-6.0288.3853-2.0093.116-4.0168.2767-6.0254.3875-1.9896.1143-3.9762.2791-5.9669.3824-1.9397.1276-3.88006.2576-5.81921.3858-.99854.058-1.99939.1067-2.99561.1949-.38517.0163-.66898.4543-.53808.8134.07819.2112.19809.4033.30003.604.32203.5848.62032 1.183.9412 1.769-.65681.4194-1.29451.8667-1.93337 1.3129-.5178.3353-1.02228.713-1.61132.9126-.23747.0412-.51202.0261-.68404.2286-.331298.2976-.196927.9086.22936 1.0368.40834.1131.83347-.0412 1.21401-.1868 1.26091-.6005 2.31736-1.5392 3.51572-2.2459.32435-.1746.6516-.3847 1.02808-.4131.40022.0377.71646.3162 1.03329.5361.88038.6852 1.70805 1.4626 2.72454 1.9448.8752.4299 1.905.5877 2.8531.3196 1.1248-.2825 1.9942-1.0924 2.9012-1.766.4286-.3145.8978-.6191 1.4376-.6817.4929-.0731 1.0009.0591 1.4179.3243.83.5152 1.4781 1.2764 2.3341 1.7527.859.5164 1.9351.7014 2.9024.405.881-.2321 1.598-.8309 2.2716-1.4163.5236-.4235 1.0559-.9004 1.7365-1.0356.6956-.1473 1.4369.0256 2.0098.4444.9603.6655 1.7515 1.6205 2.896 1.986.991.3614 2.1216.2373 3.0384-.2727.7298-.3823 1.3194-.97 1.9687-1.4661.4194-.3168.8769-.6231 1.4069-.7061.6029-.1119 1.2458.0163 1.7613.3487.7727.485 1.3611 1.2068 2.1245 1.704.5868.3997 1.294.6718 2.0127.626.4721-.0534.7275-.7258.3603-1.0559l.0006-.0012Zm-14.0954-1.6715c-.2033-.1085-.3678-.2756-.5548-.4067-.7015-.5187-1.554-.8801-2.4367-.8615-.7159-.0024-1.4249.2303-2.0237.6184-.8092.4903-1.4312 1.2358-2.2549 1.7052-.5803.3533-1.3159.3991-1.9571.2054-1.053-.3934-1.7671-1.3159-2.6996-1.9036-.6684-.4398-1.4775-.7032-2.2821-.6104-.8045.0935-1.5406.4845-2.1743.9753-.7848.5669-1.5076 1.2898-2.4691 1.5456-.8751.228-1.781-.0922-2.5073-.579-.89025-.5604-1.62468-1.3309-2.51549-1.8908-.53228-.3336-1.19951-.5175-1.81172-.3034-.28091-.4642-.51838-.9538-.76744-1.4354 2.0492-.1555 4.09956-.2808 6.15045-.3991 2.0545-.1521 4.1095-.2756 6.1645-.3992 1.6408-.1195 3.2823-.2269 4.9243-.3168 2.4413-.1764 4.8838-.3197 7.3268-.4757 2.2271-.1712 4.4575-.2669 6.6851-.4381 1.0142-.0545 2.0243-.1526 3.0397-.1845.3382-.0313.6782-.0661 1.0182-.0493-.0938.1045-.1981.1996-.311.2832-.9939.7246-1.9907 1.4481-3.0443 2.0839-1.5163.8837-3.0425 1.7551-4.6284 2.507-.2861.1201-.5687.2593-.8705.3307l-.0006-.0012ZM75.9158 11.222c.9667-.3655 2.2224.3655 2.0654 1.473-.0064 1.212-1.6299 1.8009-2.4882 1.0235-.8271-.6516-.5972-2.1623.4222-2.4965h.0006ZM91.2891 11.1878c.7362-.029 1.4752-.0267 2.2114-.0179-.0064 6.0518-.0064 12.1042 0 18.156-.6748.0087-1.3513.0087-2.0237-.022-.0354-.6289-.0776-1.2584-.1437-1.8833-.845.8482-1.7694 1.7144-2.9747 1.9848-1.9641.4276-4.2085.0778-5.7034-1.3535-2.121-1.9448-2.5519-5.2524-1.5372-7.8597.8671-2.2244 3.1561-3.8193 5.5574-3.7172 1.8112-.1416 3.6003.742 4.622 2.2372-.0289-2.5076-.011-5.0151-.0087-7.5255m-4.9556 7.2029c-1.3622.1862-2.5496 1.1499-3.0564 2.4234-.7981 1.954-.5288 4.4969 1.1057 5.948 1.6235 1.3935 4.3434 1.2381 5.7369-.412 1.4793-1.8055 1.506-4.6872.0997-6.5461-.9065-1.1453-2.4639-1.679-3.8859-1.4133ZM97.5879 11.2259c.9707-.3765 2.1963.3899 2.037 1.4865-.0023 1.2003-1.6165 1.7654-2.4593 1.0054-.8381-.6423-.5971-2.1641.4223-2.4924v.0005ZM54.2168 11.6173c.8515-.011 1.7052-.0197 2.5589.0157 2.0724 4.0717 4.1291 8.152 6.2253 12.2127 1.8754-3.6864 3.7416-7.3769 5.6037-11.0698.2103-.3835.3469-.8262.6522-1.1499.8381-.0487 1.6762-.011 2.5143-.0023-.0133 5.8969-.011 11.7938 0 17.6908-.7344.0197-1.4706.0179-2.205.0133-.0064-4.5811-.0197-9.1622.0063-13.7432-1.8818 3.7659-3.8568 7.4831-5.7456 11.2444-.5485.018-1.0993.018-1.6478.011-1.9397-3.6882-3.7972-7.4187-5.7433-11.1029-.0221 4.5237 0 9.0473-.011 13.571-.7362.0267-1.4729.0243-2.2114.0156.0064-5.9015.0064-11.8048.0023-17.7064h.0011ZM107.319 16.5396c1.557-.2129 3.222-.029 4.56.8529 1.862 1.1388 2.855 3.3603 2.819 5.5047.08 1.9093-.632 3.8814-2.085 5.1572-2.533 2.2772-7.002 1.9935-9.068-.7775-1.17-1.4684-1.473-3.4184-1.284-5.2436.203-2.7001 2.355-5.1172 5.057-5.4937m.472 1.8502c-1.632.2303-2.881 1.6506-3.2 3.2234-.27 1.5219-.19 3.2345.768 4.5167.959 1.3936 2.895 1.9384 4.456 1.3223 1.442-.5141 2.4-1.9518 2.576-3.4428.166-1.4464.04-3.0593-.913-4.2312-.838-1.1076-2.331-1.6594-3.687-1.389v.0006ZM133.862 18.9362c.927-1.6373 2.791-2.6096 4.662-2.4721.009.7333.006 1.4684.002 2.2017-1.126.0331-2.344.1265-3.277.8285-.973.7311-1.327 2.0138-1.341 3.1811 0 2.2128-.004 4.4239.009 6.6367-.736.018-1.475.0157-2.211.0087-.007-4.2069-.007-8.4137.002-12.62.661-.0023 1.325-.0047 1.99.0046.033.7444.126 1.4864.164 2.2308ZM142.803 18.8702c.851-1.3866 2.353-2.4187 4.018-2.399 1.369-.0975 2.824.3034 3.789 1.3246 1.097 1.0965 1.326 2.7338 1.359 4.2155-.008 2.4321.007 4.8625-.008 7.2946-.728.0267-1.457.0267-2.187.0087.011-2.359.013-4.7186.004-7.0776-.044-1.1719-.208-2.5232-1.183-3.3116-1.311-.9504-3.322-.7752-4.441.4055-.835.7954-1.192 1.9848-1.2 3.1144-.009 2.2929.008 4.5834-.007 6.8763-.736.0064-1.473.0087-2.209-.0111.014-4.1981.014-8.398 0-12.5956.666-.018 1.334-.018 2.002-.0157.027.7223.062 1.4464.064 2.171h-.001ZM155.402 19.303c1.896-3.4248 7.349-3.8721 9.811-.8528 1.174 1.3181 1.444 3.1654 1.351 4.8711-3.306.0551-6.613.0024-9.919.0267.038 1.1917.445 2.4101 1.314 3.2519 1.254 1.2938 3.476 1.4777 4.921.3963.533-.3812.822-.9794 1.165-1.5172.695-.2083 1.48-.1038 2.198-.0087-.592 1.686-1.804 3.2519-3.562 3.799-2.075.6312-4.552.3145-6.175-1.2097-2.373-2.1663-2.63-6.039-1.104-8.7572m2.584-.0794c-.814.6028-1.197 1.5862-1.332 2.5609 2.586.0156 5.171.0156 7.756 0-.135-.7618-.296-1.5572-.805-2.1664-1.371-1.606-4.016-1.7011-5.619-.3945ZM75.3636 16.7228c.7385-.0267 1.4775-.0244 2.2137-.0157-.011 4.2046-.0046 8.4091-.0023 12.6136-.7362.0111-1.4729.0134-2.2091-.0156-.011-4.1959-.0023-8.3894-.0023-12.5829v.0006ZM97.0181 16.7141c.7344-.0156 1.4706-.0179 2.205-.0023-.0133 4.9489.011 9.8978-.0087 14.8468.0024 1.0541-.3359 2.2598-1.3159 2.8069-1.0814.6735-2.395.4896-3.6026.485.0064-.5935.0087-1.1853.0023-1.7788.7344-.0731 1.5349.0464 2.2004-.3325.4489-.3121.5218-.8952.5155-1.3999.0046-4.8759-.0064-9.7493.0046-14.6252h-.0006ZM117.245 16.7088c.736-.011 1.473-.0134 2.211.0156.011 2.4966-.011 4.9954.009 7.4919.004 1.1319.338 2.4077 1.349 3.0482 1.353.7821 3.242.5228 4.308-.6399.778-.8018 1.103-1.9471 1.101-3.0459.013-2.2859-.009-4.5701.009-6.856.734-.0244 1.47-.0244 2.207-.0133-.005 4.2045-.005 8.4091.002 12.6136-.668.0087-1.335.0064-2.003-.0046-.031-.6736-.06-1.349-.106-2.0225-.717.9747-1.67 1.8322-2.875 2.1136-1.549.3498-3.322.1752-4.578-.875-1.195-.9723-1.606-2.5939-1.622-4.0763-.026-2.5829 0-5.1659-.013-7.7488l.001-.0006ZM167.412 16.7171c.794-.022 1.59-.022 2.386 0 1.36 3.1945 2.635 6.4266 4.036 9.6008 1.462-3.1747 2.862-6.3779 4.26-9.5811.772-.0533 1.546-.0423 2.318-.0266-2.738 6.0477-5.392 12.1309-8.152 18.1653-.754-.011-1.506-.0046-2.258-.0197.944-2.2087 2.008-4.3618 2.933-6.5769-.29-.1642-.675-.2617-.781-.6202-1.592-3.6418-3.154-7.2992-4.741-10.941l-.001-.0006Z" />
</svg>
