<svg fill="#999999" xmlns="http://www.w3.org/2000/svg" viewBox="0 0 145 49" class="h-10 md:h-[49px]">
    <path fill-rule="evenodd" clip-rule="evenodd"
        d="M101.55 16.74c-2.1832 0-3.8205.84-4.6392 2.24l-.4093.84v-2.66h-3.5476V33.4h3.8205v-9.66c0-2.24 1.228-3.64 3.4106-3.64 2.047 0 3.139 1.26 3.139 3.5v9.8h3.82V22.9c-.136-3.78-2.183-6.16-5.594-6.16Zm-18.4202 0c-4.5027 0-7.2316 2.94-7.2316 7.56v2.24c0 4.48 2.8654 7.14 7.3681 7.14 3.0018 0 5.1849-1.12 6.4129-3.5l-2.3196-1.4c-.9551 1.4-2.5924 2.24-4.0933 2.24-2.3196 0-3.6841-1.4-3.6841-3.92v-.7H90.225v-2.66c-.1365-4.2-2.8654-7-7.0952-7Zm3.5476 7.28h-7.0952v-.42c0-2.66 1.2281-4.2 3.5476-4.2 2.1832 0 3.5476 1.4 3.5476 3.92v.7Zm58.1256-9.52v-3.08h-13.099v3.08h4.64v15.82h-4.64v3.08h13.099v-3.08h-4.639V14.5h4.639ZM45.0616 11c-5.8672 0-9.5512 3.78-9.5512 9.8v3.22c0 6.02 3.684 9.8 9.5512 9.8 5.8671 0 9.5511-3.78 9.5511-9.8V20.8c0-6.02-3.684-9.8-9.5511-9.8Zm5.5942 13.3c0 4.06-2.0466 6.3-5.5942 6.3-3.5476 0-5.5943-2.24-5.5943-6.3v-3.78c0-4.06 2.0467-6.3 5.5943-6.3 3.5476 0 5.5942 2.24 5.5942 6.3v3.78Zm15.9641-7.42c-2.0466 0-3.684.84-4.6391 2.24l-.4093.56v-2.52h-3.5476V39h3.8204v-7.84l.4094.56c.8187 1.26 2.5925 2.1 4.5027 2.1 3.2747 0 6.5494-2.24 6.5494-7.14v-2.8c-.1365-3.5-2.1832-7.14-6.6859-7Zm2.7289 9.66c0 2.66-1.5009 4.2-3.8204 4.2-2.1831 0-3.8205-1.68-3.8205-4.2v-2.38c0-2.52 1.5009-4.2 3.8205-4.2 2.3195 0 3.8204 1.68 3.8204 4.2v2.38Zm48.1652-15.12-7.641 21.98h3.821l1.5-4.76h8.869l1.501 4.62h3.821l-7.641-21.98-4.23.14Zm-1.364 14.14 3.411-11.06 3.411 11.06h-6.822Zm-90.4637-3.08c.6823-1.96.4094-4.06-.5458-5.74-1.5009-2.66-4.5026-4.06-7.368-3.36-1.6373-1.82-4.0934-2.66-6.5494-2.24-2.456.56-4.36623 2.38-5.1849 4.76-1.91024.42-3.54758 1.68-4.5027 3.36-1.5008978 2.66-1.228006 6.02.81867 8.26-.68222 1.96-.40933 4.06.54578 5.74 1.5009 2.66 4.5027 4.06 7.36805 3.36 1.3645 1.54 3.1382 2.38 5.1849 2.38 3.0018 0 5.5943-1.96 6.5494-4.9 1.9102-.42 3.5476-1.68 4.5027-3.36 1.5009-2.66 1.228-6.02-.8187-8.26Zm-10.2334 14.7c-1.228 0-2.3195-.42-3.2747-1.26l.1365-.14 5.4578-3.22c.2729-.14.4093-.42.4093-.84v-7.84l2.3196 1.4v6.58c0 2.94-2.1831 5.32-5.0485 5.32Zm-11.05205-4.9c-.54578-1.12-.81867-2.24-.54578-3.5l.13645.14 5.45781 3.22c.27289.14.54578.14.95507 0l6.6859-3.92V31.02l-5.4578 3.22c-2.5925 1.4-5.73075.56-7.23165-1.96ZM3.0364 20.24c.54578-1.12 1.5009-1.82 2.72891-2.24v6.58c0 .28.13644.56.40933.84l6.54936 3.92-2.3196 1.4h-.1364l-5.45781-3.22c-2.31957-1.68-3.13824-4.9-1.77379-7.28Zm18.8295 4.48-6.5494-3.92 2.3196-1.4h.1364l5.4578 3.22c1.7738.98 2.7289 2.94 2.5925 5.04-.1365 1.96-1.5009 3.78-3.2747 4.48v-6.58c-.1365-.42-.4093-.7-.6822-.84Zm2.3195-3.5-.1364-.14-5.4578-3.22c-.2729-.14-.6823-.14-.9551 0l-6.5494 3.92V18.98l5.4578-3.22c1.7738-.98 3.8205-.98 5.4578.28 1.6373 1.12 2.456 3.08 2.1831 5.18ZM9.85867 25.98l-2.31957-1.4V18c0-2.1 1.09156-3.92 3.0018-4.76 1.7738-.84 3.9569-.56 5.4578.7l-.1364.14-5.4579 3.22c-.2728.14-.40929.42-.40929.84l-.13644 7.84Zm1.22803-2.8 3.0018-1.68 3.0018 1.68v3.5l-3.0018 1.68-3.0018-1.68v-3.5Z" />
</svg>
