<svg fill="#999999" xmlns="http://www.w3.org/2000/svg" viewBox="0 0 170 49" class="h-10 md:h-[49px]">
    <path fill-rule="evenodd" clip-rule="evenodd"
        d="M15.5432 4v11.1805L5.65549 5.23956l-.8545-.8591V15.9139H.182129V32.3686H4.80213V43.967l.8545-.8592 9.88657-9.9398V45h1V33.118l9.9353 9.9898.8545.8592V32.3686h4.6189V15.9139H27.333V4.38037l-.8545.85921-9.9353 9.98982V4h-1ZM5.80099 6.80387l9.06121 9.11003H5.80099V6.80387ZM1.18213 16.9139h3.61886v.0023H14.8623l-9.91114 9.9655-.00354.0036h-.00001l-.14543.1462-.00005.2063v.0001l-.00102 4.1307H1.18213V16.9139Zm4.62 24.6296V27.4442l9.74107-9.7935V31.75l-9.74107 9.7935Zm10.76597-9.8186V17.6267l9.7649 9.8175-.0011 4.4243-.0001.5001h.0012v9.1749l-9.7649-9.8186ZM27.333 27.238v4.1306h3.6189V16.9139H27.333v.0023H17.2729l9.8975 9.9519.0171.0172.1455.1463v.2064Zm-1-18.68244v7.35834h-9.0601l9.0601-9.10994v1.7516ZM65.8162 15.922c-1.212.6845-2.1519 1.6571-2.8242 2.9201l.0011-.0011c-.6723 1.2642-1.0078 2.7504-1.0078 4.4633 0 1.7129.3457 3.2003 1.0373 4.4644.6916 1.2642 1.6746 2.238 2.9455 2.9202 1.272.6822 2.7425 1.0238 4.4114 1.0238 2.2176 0 3.9227-.5444 5.112-1.6354 1.1904-1.0899 1.9784-2.3803 2.365-3.8677h-2.9001c-.3265.959-.839 1.7072-1.5419 2.247-.7006.5399-1.7142.8098-3.0362.8098-1.6291 0-2.9261-.4681-3.8921-1.4065-.9659-.9373-1.4999-2.2015-1.602-3.7914h12.6651v-1.8336c0-1.3234-.2801-2.5409-.839-3.6524-.5589-1.1104-1.4036-2.0022-2.5328-2.6753-1.1281-.6731-2.4761-1.009-4.1041-1.009-1.6281 0-3.0475.3416-4.2572 1.0238Zm7.6142 2.5978c.712.7859 1.068 1.8701 1.068 3.2561h-9.5836c.203-1.4259.7574-2.5226 1.6632-3.2868.9048-.7642 2.0703-1.1457 3.4942-1.1457 1.5272 0 2.6462.3917 3.3582 1.1764Zm7.9237-.6264v-2.5385h-2.7493v15.8989h2.747v-9.0189c0-1.4885.3356-2.558 1.0079-3.2105.6723-.6526 1.6893-.9783 3.0532-.9783h1.7403v-2.7505h-1.3424c-2.0963 0-3.4091.836-3.9375 2.5067-.0396.1219-.0793.2028-.1213.2438-.0419.041-.102.0615-.1836.0615-.1429 0-.2143-.0707-.2143-.2142Zm19.1209 12.8695c1.149-.631 2.086-1.5842 2.808-2.8575.722-1.2744 1.084-2.8085 1.084-4.6 0-1.7914-.362-3.3267-1.084-4.5999-.723-1.2744-1.659-2.2277-2.808-2.8586-1.15-.631-2.3869-.9476-3.7088-.9476-2.6042 0-4.4364 1.0387-5.4941 3.1183-.0817.1617-.1826.2437-.305.2437-.1225 0-.1837-.0615-.1837-.1834v-2.7208h-2.747v21.7038h2.747v-8.5291c0-.1219.0624-.1834.1837-.1834s.2233.082.305.2438c1.0577 2.0796 2.8899 3.1182 5.4941 3.1182 1.3219 0 2.5588-.3166 3.7088-.9475Zm-4.3494-13.4207c1.6473 0 2.9749.525 3.9824 1.5751 1.008 1.0501 1.512 2.5124 1.512 4.387 0 1.8746-.504 3.337-1.512 4.387-1.0063 1.0512-2.3351 1.5751-3.9824 1.5751s-2.9749-.525-3.9828-1.5751c-1.0079-1.0489-1.3775-2.5124-1.3775-4.387 0-1.8746.3696-3.3369 1.3775-4.387 1.0067-1.0501 2.3355-1.5751 3.9828-1.5751Zm12.2274 13.9104V9.24358h-2.747V31.2526h2.747Zm2.262-12.4127v.0011-.0011Zm0 0h.001c-.672 1.2641-1.008 2.7504-1.008 4.4633 0 1.7129.346 3.2002 1.037 4.4644.692 1.2642 1.675 2.2379 2.946 2.9201 1.272.6822 2.742 1.0239 4.411 1.0239 2.218 0 3.923-.5444 5.112-1.6355 1.19-1.0899 1.979-2.3802 2.365-3.8676h-2.9c-.326.9589-.839 1.7072-1.542 2.247-.701.5398-1.714.8098-3.036.8098-1.629 0-2.926-.4681-3.892-1.4066-.966-.9373-1.5-2.2015-1.602-3.7913h12.665v-1.8337c0-1.3233-.279-2.5408-.839-3.6524-.559-1.1104-1.403-2.0021-2.533-2.6752-1.128-.6731-2.478-1.0091-4.105-1.0091-1.627 0-3.046.3417-4.256 1.0239-1.212.6843-2.152 1.6565-2.824 2.919Zm10.438-.3212c.712.7858 1.068 1.87 1.068 3.2561h-9.583c.204-1.4259.757-2.5227 1.663-3.2869.905-.7642 2.071-1.1457 3.494-1.1457 1.527 0 2.646.3918 3.358 1.1765Zm9.183 4.3255-6.286 7.7968h.002v.6116h3.083l5.004-6.3892 4.67 6.3892h2.96v-.6116l-5.463-7.3367 5.92-7.3071v-.6423h-3.081l-4.64 5.9302-4.304-5.9302h-3.022v.6115l5.157 6.8778Zm13.879-9.2227v-3.4406h-3.209v3.4406h3.209ZM141.2 31.2538h2.748V15.356H141.2v15.8978Zm3.616-15.8978h-.002v-.0011h.002v.0011Zm0 0v2.329h2.988v8.3697c0 1.7539.428 3.0568 1.282 3.9132.854.8576 2.156 1.2847 3.907 1.2847h2.136v-2.4452h-1.068c-1.039 0-1.807.0251-2.305.0763-.499.0513-.799.0763-.9.0763-.144 0-.255-.0398-.337-.1218-.082-.0809-.121-.1925-.121-.336 0-.1014.025-.402.076-.902s.077-1.2699.077-2.3085v-7.6055h3.917l-.772-2.3302h-3.145v-4.2799h-2.748v4.2799h-2.987Zm12.508 0h-2.801v.0011h.003l5.266 15.8967h1.862c.121 0 .213.0102.274.0307.061.0194.111.0706.152.1526.08.1242.071.3075-.031.5512l-.855 2.3234c-.123.3052-.357.4578-.703.4578-.122 0-.408-.0251-.854-.0763-.448-.0513-1.028-.0763-1.74-.0763h-2.228v2.4452h2.929c1.711 0 2.739-.2904 3.625-.8713.884-.5808 1.57-1.6047 2.059-3.0727l5.689-17.1505v-.6116h-2.612l-4.548 13.3375c-.061.1629-.157.3793-.469.3793-.312 0-.408-.2153-.471-.3793l-4.547-13.3375ZM57.431 30.7891c1.1496-.631 2.0861-1.5842 2.8083-2.8575.7222-1.2733 1.0839-2.8074 1.0839-4.6 0-1.7926-.3617-3.3278-1.0839-4.6011-.7233-1.2733-1.6587-2.2265-2.8083-2.8574-1.1496-.631-2.3865-.9476-3.7085-.9476-2.6042 0-4.4374 1.0387-5.4941 3.1183-.0816.1617-.1825.2437-.3049.2437-.1225 0-.1837-.0615-.1837-.1834v-2.7208h-2.7471v21.7038h2.7471V28.558c0-.1219.0624-.1834.1837-.1834s.2233.082.3049.2438c1.0578 2.0796 2.8899 3.1182 5.4941 3.1182 1.322 0 2.5589-.3166 3.7085-.9475Zm-4.349-13.4207c1.6473 0 2.9749.525 3.9828 1.5751 1.0079 1.0501 1.5113 2.5124 1.5113 4.387 0 1.8746-.5034 3.3369-1.5113 4.387-1.0067 1.0512-2.3355 1.5751-3.9828 1.5751s-2.975-.525-3.9828-1.5751c-1.0079-1.0489-1.3775-2.5124-1.3775-4.387 0-1.8746.3696-3.3369 1.3775-4.387 1.0067-1.0501 2.3355-1.5751 3.9828-1.5751Z" />
</svg>
