<svg fill="#999999" xmlns="http://www.w3.org/2000/svg" viewBox="0 0 113 49" class="h-10 md:h-[49px]">
    <path
        d="M8.72168 19.641c-2.64509 0-3.94354 2.3646-3.94354 5.522v7.9126H1.04785V16.3782h3.66493v4.3319h.06364c.78251-2.6634 2.34238-4.8156 4.74841-4.8156 1.69227 0 2.40607.5994 2.40607.5994l-1.6838 3.439c0-.0018-.53653-.2919-1.52542-.2919ZM53.817 21.9331V33.074h-3.634v-9.785c0-2.8086-.8685-4.2958-3.087-4.2958-2.2977 0-3.4087 1.881-3.4087 5.4893v8.5897H40.086V23.289c0-2.6998-.8582-4.2958-3.0544-4.2958-2.5075 0-3.4724 2.2282-3.4724 5.4893v8.5897h-3.6649v-16.694h3.6649v3.7809h.0327c.5711-2.6168 2.1291-4.2317 4.7588-4.2317 2.6072 0 4.3065 1.4215 4.9513 3.9416.614-2.4251 2.2478-3.9416 4.7587-3.9416 3.5033 0 5.7563 2.2281 5.7563 6.0057Zm-34.5546-6.0386c-3.3725 0-5.579 1.6064-6.5851 4.5065l3.1043 1.1452c.5658-1.7498 1.7455-2.7464 3.5462-2.7464 2.026 0 3.216.9051 3.216 2.2938 0 1.4198-.9475 1.7169-3.087 2.0675-2.3802.3886-8.0402.5165-8.0402 5.3598 0 2.8379 2.339 4.9728 5.8526 4.9728 2.6416 0 4.4405-1.0951 5.2729-3.1333h.0327v2.7136h3.6339V22.8053c-.0016-4.4926-2.2305-6.9108-6.9463-6.9108Zm3.376 9.3203c0 3.5012-1.7078 5.7501-4.4371 5.7501-1.9296 0-3.087-1.0985-3.087-2.6824 0-1.4855 1.19-2.5166 3.4722-2.9415 2.3356-.4353 3.512-.9725 4.0519-2.2611v2.1349Zm44.1048-9.2874c-2.7793 0-4.616 1.5493-5.402 3.8777v-3.4269h-3.8593v23.1229h3.8266v-9.8523h.0327c.8513 2.5218 2.6244 3.9088 5.402 3.9088 4.4044 0 7.5568-3.6809 7.5568-8.8816-.0017-5.1646-3.1524-8.7486-7.5568-8.7486Zm-.9494 14.5314c-3.0509 0-4.7432-2.2454-4.7432-5.7328 0-3.4873 1.8934-5.7328 4.7432-5.7328 2.848 0 4.7432 2.3543 4.7432 5.7328 0 3.3803-1.8934 5.7328-4.7432 5.7328ZM112.21 32.9971v.1041l-14.9352.0053v-.1094c2.1536-1.2338 3.6402-2.4906 4.9782-3.8039h6.132l3.825 3.8039Zm-3.701-19.7304L104.724 9.5h-.11s.064 7.0198-6.2925 13.4042c-6.2197 6.2485-13.5339 6.2626-13.5339 6.2626v.1095l3.8567 3.832s7.2077.0724 13.5747-6.2626c6.344-6.3138 6.29-13.579 6.29-13.579Z" />
</svg>
