<svg fill="#999999" xmlns="http://www.w3.org/2000/svg" viewBox="0 0 164 49" class="h-10 md:h-[49px]">
    <path
        d="M40.9293 18.5664c4.3617 0 8.0277 2.893 8.0277 8.2658 0 .3569 0 .6575-.0376 1.2022H35.8157c.1692 2.724 2.3688 4.5274 5.1324 4.5274 2.3313 0 3.8917-1.0708 4.7565-2.5361l2.8012 1.9913c-1.504 2.367-4.0984 3.8699-7.5953 3.8699-5.0572 0-8.7044-3.5881-8.7044-8.6603.0188-4.903 3.666-8.6602 8.7232-8.6602Zm-4.9256 6.7817h9.2685c-.3948-2.4046-2.3312-3.7008-4.4745-3.7008-2.1432 0-4.3052 1.2398-4.794 3.7008ZM52.689 18.8858h3.666v2.2355c.94-1.3338 2.9704-2.5549 5.3581-2.5549 4.5684 0 8.0276 3.8887 8.0276 8.6603 0 4.7528-3.4592 8.6602-8.0276 8.6602-2.4065 0-4.4369-1.2399-5.3581-2.5737v9.1863h-3.666V18.8858Zm8.3661 3.0057c-2.9705 0-5.0009 2.3294-5.0009 5.3352 0 3.0057 2.0304 5.3351 5.0009 5.3351 2.9328 0 4.9632-2.3294 4.9632-5.3351 0-3.0058-2.0304-5.3352-4.9632-5.3352ZM77.1387 10.5527h-3.666V35.519h3.666V10.5527ZM83.9081 15.2515c-1.3348 0-2.4628-1.0896-2.4628-2.4609 0-1.3338 1.128-2.4234 2.4628-2.4234 1.3725 0 2.4253 1.1083 2.4253 2.4234 0 1.3713-1.0528 2.4609-2.4253 2.4609Zm-1.8236 3.6256h3.6661v16.6442h-3.6661V18.8771ZM98.2648 35.8674c-5.0009 0-8.7985-3.7384-8.7985-8.6603 0-4.9219 3.7976-8.6602 8.7985-8.6602 3.4402 0 6.3352 1.841 7.7642 4.6025l-3.196 1.7283c-.808-1.6907-2.425-2.9306-4.5682-2.9306-2.9704 0-5.0572 2.2919-5.0572 5.26 0 2.9682 2.1056 5.26 5.0572 5.26 2.1242 0 3.7602-1.2398 4.5682-2.9305l3.196 1.7282c-1.429 2.7803-4.343 4.6026-7.7642 4.6026ZM116.217 18.5664c2.407 0 4.399 1.2399 5.339 2.5549v-2.2355h3.666V35.53h-3.666v-2.2355c-.94 1.3337-2.932 2.5736-5.339 2.5736-4.568 0-8.028-3.8886-8.028-8.6602 0-4.7528 3.46-8.6415 8.028-8.6415Zm.677 3.3251c-2.97 0-4.963 2.3294-4.963 5.3351 0 3.0058 1.993 5.3352 4.963 5.3352 2.97 0 4.963-2.3294 4.963-5.3352 0-3.0057-2.011-5.3351-4.963-5.3351ZM131.505 35.5401V22.1459h-3.478v-3.2687h3.478v-4.6213h3.666v4.6213h6.317v3.2687h-6.317v10.1067h6.317v3.2875h-9.983ZM30.4948 18.875v3.2875h-8.9865V35.538h-3.666V18.875h12.6525Z" />
    <path d="M30.4997 12.6973v3.2687h-15.905v19.5748h-3.666V12.6973h19.571Z" />
    <path
        d="M30.4934 6.5v3.26872H7.66995V35.5428H4.00391V6.5H30.4934ZM151.954 18.5664c4.361 0 8.027 2.893 8.027 8.2658 0 .3569 0 .6575-.037 1.2022H146.84c.169 2.724 2.369 4.5274 5.133 4.5274 2.331 0 3.891-1.0708 4.756-2.5361l2.801 1.9913c-1.504 2.367-4.098 3.8699-7.595 3.8699-5.057 0-8.705-3.5881-8.705-8.6603.038-4.903 3.667-8.6602 8.724-8.6602Zm-4.926 6.7817h9.269c-.395-2.4046-2.332-3.7008-4.475-3.7008-2.124 0-4.286 1.2398-4.794 3.7008Z" />
</svg>
