<svg fill="#999999" xmlns="http://www.w3.org/2000/svg" viewBox="0 0 151 49" class="h-10 md:h-[49px]">
    <path
        d="m123.274 12.7187.281 16.8906h-.141l-4.763-16.8906h-7.845v21.2748h5.183l-.28-17.4651h.141l5.113 17.4651h7.496V12.7187h-5.185Zm-98.7007 0-3.9227 21.4911h5.6743l2.872-19.5502h.14l2.8023 19.5496h5.604l-3.853-21.4905h-9.3169Zm31.6627 0-2.5915 16.3877h-.1405l-2.5915-16.3877h-8.5463l-.4205 21.4911h5.2538l.1406-19.3351h.0697l3.5021 19.3345h5.3241l3.5027-19.3339h.1406l.1393 19.3339h5.2538l-.4901-21.4905H56.236ZM11.8244 28.0999c.2097.5029.14 1.2222.0697 1.5816-.14.7186-.6301 1.4373-2.03159 1.4373-1.33057 0-2.10128-.7902-2.10128-1.9409V27.094h-5.604v1.6531C2.15723 33.5627 5.8696 35 9.79283 35c3.78267 0 6.93457-1.3659 7.42537-4.8877.2799-1.8688.0697-3.0904 0-3.5219-.981-4.5277-8.96618-5.8215-9.52725-8.3375-.06968-.4314-.06968-.8622 0-1.1501.14057-.7186.63075-1.4373 1.89163-1.4373 1.26092 0 1.96192.7901 1.96192 1.9409v1.2937h5.2532v-1.5094c0-4.672-4.1329-5.3907-7.07516-5.3907-3.71237 0-6.7946 1.2937-7.35506 4.7435-.14058.9344-.21025 1.7973.06967 2.8753.841 4.4563 8.33725 5.75 9.38725 8.4811Zm68.1594 0c.2096.5035.1394 1.1501.0697 1.5816-.1406.7186-.6308 1.4373-2.0316 1.4373-1.3312 0-2.1013-.7902-2.1013-1.9409V27.094H70.316v1.6531c0 4.7434 3.6427 6.1814 7.5659 6.1814 3.7827 0 6.8649-1.2937 7.3551-4.8877.2805-1.8688.0703-3.0189 0-3.5219-.8404-4.4562-8.7565-5.8221-9.3164-8.2653-.0703-.4315-.0703-.8629 0-1.1508.14-.7186.6301-1.4373 1.891-1.4373 1.1906 0 1.9619.7901 1.9619 1.9409v1.2937h5.183v-1.5094c0-4.672-4.0626-5.3907-7.0043-5.3907-3.713 0-6.7255 1.2216-7.2854 4.7435-.1406.9344-.1406 1.7973.0697 2.8753.841 4.4563 8.196 5.6779 9.2473 8.4811Zm17.6524 2.8753c1.4711 0 1.891-1.0065 2.031-1.5816.0703-.2151.0703-.5751.0703-.7902V12.7187h5.3235V28.172c0 .4314 0 1.2216-.07 1.4373-.35 4.0255-3.432 5.3192-7.2851 5.3192-3.8524 0-6.9346-1.2937-7.2854-5.3192 0-.2157-.0697-1.0059-.0697-1.4373V12.7187h5.3235v15.8847c0 .2873 0 .5745.0703.7902 0 .5751.4205 1.5816 1.8916 1.5816Zm43.7108-.2157c1.542 0 2.032-1.0066 2.172-1.5816.07-.2151.07-.5751.07-.7902v-3.091h-2.171v-3.1626h7.425v5.7507c0 .4308 0 .718-.07 1.4373-.351 3.9527-3.643 5.3186-7.355 5.3186-3.713 0-7.005-1.3659-7.355-5.3186-.071-.7193-.071-1.0065-.071-1.438v-9.0555c0-.3599.071-1.0786.071-1.4379.49-4.0255 3.642-5.3192 7.355-5.3192 3.712 0 6.935 1.2937 7.355 5.3192.07.6465.07 1.4373.07 1.4373v.7187h-5.254v-1.2216s0-.5036-.07-.7908c-.07-.503-.49-1.581-2.101-1.581-1.541 0-1.962 1.0059-2.102 1.581-.07.2872-.07.6472-.07 1.0065v9.8469c0 .2872 0 .5745.07.7902 0 .575.561 1.5816 2.031 1.5816Z" />
</svg>
