<svg fill="#999999" xmlns="http://www.w3.org/2000/svg" viewBox="0 0 139 49" class="h-10 md:h-[49px]">
    <path fill-rule="evenodd" clip-rule="evenodd"
        d="M29.989 9.75874c.136.02327.3174.11631.3401.32566.0226.1861 4.1941 29.1466 4.1941 29.1466l-.0007.0002v.0001l-10.2246 2.6053v-.0004L.698242 37.6493S3.50943 15.295 3.62279 14.5273c.13602-1.0467.18136-1.07 1.24689-1.4189.01612-.0165.77737-.2566 1.98213-.6364.48949-.1544 1.0522-.3318 1.66788-.5267.22671-1.6748 1.02019-3.83812 2.08571-5.55947 1.519-2.46572 3.3553-3.83814 5.2143-3.88467.9522-.02326 1.7457.3024 2.3805 1.00025.0453.06977.0906.1163.136.16282v.00001c.0907-.02327.204-.02327.2947-.02327 1.4509 0 2.6298.83742 3.446 2.44246.2494.48849.4307.97698.5441 1.37243.7254-.23262 1.1562-.37219 1.1562-.37219.1375-.03527.4184-.08391.645-.004.049.01525.0964.0397.1401.07335.0189.01407.0369.02968.0537.04696.2267.23262 2.5165 2.51224 2.5165 2.51224s2.7205.02326 2.8565.04652Zm-9.4651-1.64089.0001-.00001c.3249-.105.631-.20388.9181-.2898-.2947-.97698-.9749-2.60528-2.4031-2.88442.4307 1.16307.5441 2.51224.5668 3.46596.3211-.09886.6271-.19772.918-.29169v-.00001l.0001-.00003Zm-3.0981.98957c.3236-.10227.6425-.20307.9557-.3024 0-1.04676-.0907-2.60528-.6121-3.69857-.5441.23261-.9975.62806-1.3376 1.00024-.8841.97698-1.6096 2.46572-1.995 3.95441 1.0186-.33091 2.0244-.64882 2.989-.95368Zm-.4725-5.02448c-.3174-.20935-.6802-.3024-1.1109-.3024-2.8565.09305-5.3503 4.67556-6.03047 7.74606l.29637-.0946.0002-.0001c.9336-.2981 1.921-.6135 2.9454-.9288.3627-1.95395 1.2695-3.95444 2.4484-5.25708.4534-.51176.9522-.9072 1.451-1.16308Zm1.6733 11.07326-1.1789 4.5593s-1.3149-.6281-2.9019-.5118c-2.3124.1396-2.3351 1.6283-2.3124 2.0238.0538.8095.9017 1.368 1.9256 2.0423 1.5651 1.0308 3.5413 2.3324 3.7194 5.2152.2267 3.7684-1.9497 6.3272-5.0782 6.5365-3.76341.2326-5.82646-2.0237-5.82646-2.0237l.79348-3.466s2.08572 1.605 3.74068 1.512c1.0882-.0698 1.4736-.977 1.4283-1.6283-.0696-1.1634-.929-1.7895-1.8948-2.4931-1.2356-.9003-2.64539-1.9275-2.79809-4.369-.22671-3.6754 2.13109-7.3972 7.32269-7.7461 2.0404-.1861 3.0606.3489 3.0606.3489Zm27.9582 7.7492c0 .7676.6121 1.3259 1.791 1.9772 1.8363 1.07 3.3553 2.5355 3.3326 4.6058 0 3.8148-3.0152 5.9316-7.2093 5.9316-2.8792 0-4.6022-1.1863-4.6022-1.1863l1.1562-3.3962s1.859 1.0468 3.8314 1.0468c1.3375 0 2.0403-.7211 2.0403-1.6283 0-.884-.4987-1.4655-1.927-2.3029-1.7683-1.0468-3.0832-2.5122-3.0832-4.4197 0-3.3729 2.8338-5.7688 6.9146-5.7688 2.9245 0 3.922.7909 3.922.7909l-1.0882 3.3961s-1.3602-.6513-2.9018-.6513c-1.3376 0-2.1764.6281-2.1764 1.6051Zm13.5798-2.6519c1.2469-1.5352 2.8792-2.5355 4.9423-2.5355 2.4258 0 3.8313 1.6516 3.8313 4.3267 0 .8141-.136 2.0703-.34 3.117l-1.8364 9.9094h-4.6702l1.7684-9.5837c.136-.6513.204-1.4655.204-2.1168 0-1.0468-.4081-1.7679-1.4509-1.7679-1.4963 0-3.0833 1.954-3.6954 5.1175l-1.5643 8.3742h-4.6702L57.2174 10.6h4.6702l-1.791 9.6303.068.0232Zm9.9979 8.4905c0-5.8154 3.718-11.026 9.3404-11.026 4.3528 0 6.3251 3.2799 6.3478 6.6994 0 5.9549-3.7407 11.0259-9.2497 11.0259-4.1941 0-6.4385-2.9775-6.4385-6.6993Zm4.7609-.0931c0 1.7214.6801 3.1171 2.267 3.1171 2.4712 0 3.8541-4.5127 3.8541-7.467 0-1.4189-.5441-2.8844-2.1991-2.8844-2.5391 0-3.922 4.4895-3.922 7.2343Zm17.9099-8.095s1.791-2.8379 4.9423-2.8379c3.4234 0 4.8284 2.8845 4.8064 6.0713 0 5.8386-3.5822 11.6075-9.0685 11.6075-1.791 0-2.7432-.6281-2.7432-.6281h-.0907l-1.2922 7.0948h-4.6702l3.2419-17.5392c.3854-1.9772.7481-4.6058.9522-6.3504h4.1261l-.2721 2.582h.068Zm-1.4509 10.584s.7028.6979 1.927.6979c2.6072 0 4.3982-4.4197 4.3982-7.5135 0-1.3026-.4308-2.6518-1.859-2.6518-1.6323 0-3.1513 2.0005-3.6954 4.978l-.7708 4.4894Zm15.2126-17.4926c0-1.5818 1.178-2.7914 2.675-2.7914 1.428 0 2.335 1.0002 2.335 2.3959-.023 1.7912-1.292 2.7914-2.743 2.7914h-.068c-1.315 0-2.199-.977-2.199-2.3959Zm.816 21.4471h-4.67l3.128-16.9809h4.716l-3.174 16.9809Zm11.811-17.0274h3.242l-.68 3.6055h-3.219l-2.471 13.4219h-4.671l2.472-13.4219h-2.177l.68-3.6055h2.177l.136-.7909c.385-2.0238 1.133-4.0243 2.72-5.42 1.27-1.1165 2.925-1.605 4.58-1.605 1.723 0 2.539.4187 2.539.4187l-.907 3.7451s-.657-.2326-1.496-.2326c-1.542 0-2.494 1.4655-2.766 3.0938l-.159.7909Zm10.247 11.7238c1.315-4.1173 4.24-11.6773 4.24-11.6773h4.874L132.87 30.698c-2.018 4.3033-3.99 7.4669-6.121 9.5139-1.678 1.605-3.627 2.3959-4.58 2.6053l-1.292-4.0708c.794-.2791 1.769-.6978 2.653-1.3491 1.088-.7677 1.995-1.8144 2.539-2.8845.113-.2326.159-.4419.091-.7908l-2.812-15.6085h4.897s1.066 10.3514 1.156 11.6773h.068Z" />
</svg>
