<svg fill="#999999" xmlns="http://www.w3.org/2000/svg" viewBox="0 0 122 49" class="h-10 md:h-[49px]">
    <path
        d="M3.33255 12.6588c1.1579 0 2.08423-.9241 2.08423-2.0794 0-1.15522-.92633-2.0794-2.08423-2.0794-1.15791 0-2.08424.92418-2.08424 2.0794 0 1.1553.92633 2.0794 2.08424 2.0794ZM4.0655 22.0548c1.77546-.4235 2.89479-2.1949 2.47021-3.9662-.42457-1.7714-2.20003-2.8881-3.97548-2.4645-1.775461.4235-2.894773 2.1949-2.4702069 3.9663C.514593 21.4002 2.29005 22.4785 4.0655 22.0548ZM4.0655 38.5747c1.77546-.4236 2.89479-2.195 2.47021-3.9663-.42457-1.7714-2.20003-2.8881-3.97548-2.4645-1.775461.4235-2.894773 2.1949-2.4702069 3.9663C.514593 37.8816 2.29005 38.9983 4.0655 38.5747ZM5.37781 27.0992c0-1.1552-.92632-2.0794-2.08423-2.0794-1.15791 0-2.08423.9242-2.08423 2.0794 0 1.1553.92632 2.0795 2.08423 2.0795 1.15791 0 2.08423-.9242 2.08423-2.0795ZM16.0307 26.8683c-1.8141 0-3.3193 1.4632-3.3193 3.3116 0 1.8099 1.4666 3.3117 3.3193 3.3117 1.8141 0 3.3193-1.4633 3.3193-3.3117-.0386-1.8484-1.5052-3.3116-3.3193-3.3116ZM16.0307 36.3411c-1.1579 0-2.0842.9243-2.0842 2.0795 0 1.1552.9263 2.0794 2.0842 2.0794 1.1579 0 2.0842-.9242 2.0842-2.0794-.0386-1.1552-.9649-2.0795-2.0842-2.0795ZM16.0307 23.98c1.1579 0 2.0842-.9241 2.0842-2.0794 0-1.1552-.9263-2.0794-2.0842-2.0794-1.1579 0-2.0842.9242-2.0842 2.0794 0 1.1553.9263 2.0794 2.0842 2.0794ZM16.3395 15.701c1.1193-.1925 1.8912-1.2323 1.6983-2.349-.193-1.1167-1.2352-1.8869-2.3545-1.6943-1.1193.1925-1.8912 1.2322-1.6982 2.349.1929 1.1167 1.2351 1.8483 2.3544 1.6943ZM31.0447 21.1692c1.2737-1.2708 1.2737-3.3887 0-4.6595-1.2737-1.2707-3.3965-1.2707-4.6702 0-1.2737 1.2708-1.2737 3.3887 0 4.6595 1.2737 1.3092 3.3965 1.3092 4.6702 0ZM28.7295 12.6588c1.1579 0 2.0842-.9241 2.0842-2.0794 0-1.15522-.9263-2.0794-2.0842-2.0794-1.1579 0-2.0842.92418-2.0842 2.0794 0 1.1553.9263 2.0794 2.0842 2.0794ZM28.7295 25.0583c-1.1579 0-2.0842.9243-2.0842 2.0795 0 1.1552.9263 2.0794 2.0842 2.0794 1.1579 0 2.0842-.9242 2.0842-2.0794-.0385-1.1552-.9649-2.0795-2.0842-2.0795ZM28.7295 33.299c-1.1579 0-2.0842.9241-2.0842 2.0794 0 1.1552.9263 2.0794 2.0842 2.0794 1.1579 0 2.0842-.9242 2.0842-2.0794-.0385-1.1553-.9649-2.0794-2.0842-2.0794ZM75.0548 12.2148h-8.1422v1.7065l3.0228.4387L65.45 30.4974l-4.924-16.1862 3.4615-.3899v-1.7065H53.4566v1.7065l3.2178.3899-5.0704 15.9913-4.1928-15.9913 3.0714-.3899v-1.7065H39.7568v1.7065l2.6815.2925 6.6305 22.5728h2.5352l5.5579-17.99 5.8505 17.99h2.5352L71.9343 14.36l2.9738-.4875v-1.6577h.1467ZM90.337 22.5742l2.8762.4875c-.2925 1.3162-.6336 2.535-1.0727 3.6561-.4383 1.0725-.9261 2.145-1.6082 3.2662-.6345-.6337-1.2194-1.2674-1.853-1.95-.6335-.6825-1.2671-1.4137-1.9987-2.1936-.6336-.6825-1.1699-1.2675-1.6577-1.755-.4869-.5362-.8774-.975-1.2185-1.3649 1.9016-.9262 3.2667-1.8524 4.1928-2.8274.8774-.975 1.3157-2.0962 1.3157-3.3637 0-1.4137-.5355-2.5349-1.5596-3.4124-1.0241-.8775-2.5351-1.3162-4.4853-1.3162-1.9492 0-3.4611.4875-4.631 1.4624-1.2185.975-1.8035 2.34-1.8035 4.0462 0 .9262.1953 1.9012.5364 2.8274.341.975.9746 1.9499 1.852 3.0224.0495.0488.0981.0488.0981.0975.0486.0487.0486.0487.0972.0975-1.9015.9262-3.3144 1.9499-4.2414 3.1687-.926 1.1699-1.3643 2.5349-1.3643 4.0949 0 1.2186.2925 2.2911.9261 3.3149.6335.9749 1.5109 1.8036 2.6809 2.3887 1.1699.5849 2.5351.8774 4.0947.8774 1.7548 0 3.2172-.2925 4.388-.8288 1.17-.5849 2.1446-1.2674 2.9248-2.0474.1944.195.3411.3413.5364.5363.1944.195.3897.3412.5354.5362.7317.6825 1.4624 1.17 2.1941 1.4137.7316.2925 1.6091.39 2.6809.39.5363 0 .9755-.0488 1.4624-.0975.4877-.0487 1.0241-.1462 1.7548-.3412l.2439-2.0475-3.5583-.6337c-.5364-.585-1.0241-1.0724-1.511-1.6087-.4878-.4875-.9269-.975-1.3652-1.4625.8774-1.2675 1.6091-2.5349 2.194-3.8024.6336-1.2675 1.1699-2.7299 1.6082-4.3386l2.6809-.4387v-1.6087h-7.7997l-.1458 1.7549Zm-9.1649-8.4822c.5849-.585 1.268-.8775 2.0959-.8775.8289 0 1.5119.2925 2.0474.8287.5363.5362.8288 1.2675.8288 2.2425 0 .9262-.2925 1.8036-.8288 2.6812-.585.8774-1.3643 1.7548-2.3399 2.6323-.1943-.2437-.3896-.4874-.5354-.6825-.1953-.2437-.342-.4387-.5364-.6824-.5849-.78-.9755-1.5112-1.1699-2.0962-.1953-.6337-.2925-1.2187-.2925-1.8037-.0981-.8775.1944-1.6087.7308-2.2424Zm2.0473 20.5231c-1.0718 0-1.9987-.2437-2.8276-.6824-.7793-.4875-1.4129-1.0726-1.852-1.9012-.4392-.78-.6822-1.6575-.6822-2.5837 0-.8775.1944-1.7062.5355-2.5837.342-.8775.9755-1.6575 1.9015-2.34.4878.5851 1.0242 1.2675 1.6091 1.9988.6336.7312 1.3643 1.6086 2.1932 2.6324.5363.6337 1.0727 1.3162 1.6576 1.9986.585.6825 1.2186 1.3651 1.8521 2.0475-1.2185.9262-2.6809 1.365-4.3872 1.4137ZM114.737 23.7935c2.194-.4387 3.753-1.1212 4.631-2.1937.877-1.0724 1.316-2.2423 1.316-3.5098 0-1.7062-.683-3.1199-2.047-4.1923-1.365-1.1212-3.461-1.6575-6.289-1.6575h-11.309v1.755l3.119.3412c.05 1.5599.05 3.1686.05 4.7285v10.9196c0 1.5599-.05 3.1198-.05 4.6798l-3.119.3412v1.7549h10.285c2.048 0 3.754-.195 5.119-.5849 1.365-.39 2.487-.9262 3.266-1.6087.829-.6825 1.414-1.4137 1.755-2.1937.39-.8287.536-1.6087.536-2.4374 0-1.5599-.585-2.8761-1.706-3.9973s-2.974-1.8037-5.557-2.1449Zm-5.753-4.9723c.049-1.5599.049-3.1198.049-4.6798h1.95c1.658 0 2.925.3412 3.705 1.0237.829.6825 1.267 1.7549 1.267 3.2661 0 1.5112-.438 2.7299-1.315 3.5099-.878.7799-2.292 1.1212-4.193 1.1212h-1.511l.048-4.2411Zm1.804 15.9894h-1.755c-.049-1.56-.049-3.12-.049-4.7287v-5.1672h1.658c2.193 0 3.802.4387 4.826 1.2674 1.024.8288 1.56 2.0474 1.56 3.7536 0 3.2174-2.047 4.8749-6.24 4.8749Z" />
</svg>
